<svg width="60" height="60" viewBox="0 0 60 60" fill="none" xmlns="http://www.w3.org/2000/svg" xmlns:xlink="http://www.w3.org/1999/xlink">
<path d="M40.914,16.038C36.189,16.038 34.192,18.293 30.901,18.293C27.527,18.293 24.954,16.055 20.859,16.055C16.852,16.055 12.578,18.502 9.864,22.67C6.053,28.548 6.7,39.619 12.872,49.05C15.08,52.426 18.028,56.213 21.895,56.254L21.966,56.254C25.327,56.254 26.325,54.053 30.95,54.027L31.021,54.027C35.577,54.027 36.491,56.241 39.838,56.241L39.908,56.241C43.775,56.2 46.882,52.004 49.09,48.641C50.679,46.222 51.27,45.008 52.488,42.272C43.56,38.883 42.125,26.225 50.955,21.373C48.26,17.998 44.473,16.043 40.902,16.043L40.914,16.038Z" fill="#000000"/>
<path d="M39.873,3.75C37.06,3.941 33.779,5.732 31.857,8.07C30.114,10.188 28.679,13.331 29.242,16.379L29.467,16.379C32.462,16.379 35.528,14.576 37.318,12.265C39.043,10.065 40.351,6.948 39.873,3.75Z" fill="#000000"/>
</svg>
